<svg xmlns="http://www.w3.org/2000/svg" class="fxs-portal-svg" id="FxSymbol0-05e" role="presentation" viewBox="0 0 50 50" focusable="false" xmlns:xlink="http://www.w3.org/1999/xlink" xmlns:svg="http://www.w3.org/2000/svg">
<g>
<title/>
<path class="msportalfx-svg-c17" fill="#804998" d="M 22.891 15.949 l -7.647 2.921 V 6.537 l 7.647 2.708 Z"/>
<path class="msportalfx-svg-c20" fill="#68217a" d="M 8.289 8.565 v 8.1 l 5.728 2.179 V 6.537 L 8.289 8.565 Z m 0.628 7.513 l -0.312 -0.097 V 9.274 l 0.312 -0.088 l 0.328 -0.092 l 0.349 -0.098 v 7.292 l -0.349 -0.108 l -0.328 -0.102 Z m 1.436 0.445 l -0.392 -0.121 v -7.51 l 0.392 -0.11 l 0.415 -0.117 l 0.444 -0.125 v 8.249 l -0.444 -0.138 l -0.415 -0.128 Z m 1.84 0.569 l -0.508 -0.157 V 8.407 l 0.508 -0.143 l 0.542 -0.153 l 0.586 -0.165 v 9.496 l -0.586 -0.181 l -0.542 -0.169 Z"/>
<path class="msportalfx-svg-c17" fill="#804998" d="M 40.791 15.949 l -7.648 2.921 V 6.537 l 7.648 2.708 Z"/>
<path class="msportalfx-svg-c20" fill="#68217a" d="M 26.189 8.565 v 8.1 l 5.728 2.179 V 6.537 l -5.728 2.028 Z m 0.627 7.513 l -0.312 -0.097 V 9.274 l 0.312 -0.088 l 0.328 -0.092 l 0.349 -0.098 v 7.292 l -0.349 -0.108 l -0.328 -0.102 Z m 1.436 0.445 l -0.392 -0.121 v -7.51 l 0.392 -0.11 l 0.415 -0.117 l 0.444 -0.125 v 8.249 l -0.444 -0.138 l -0.415 -0.128 Z m 1.84 0.569 l -0.508 -0.157 V 8.407 l 0.508 -0.143 l 0.542 -0.153 l 0.586 -0.165 v 9.496 l -0.586 -0.181 l -0.542 -0.169 Z"/>
<path class="msportalfx-svg-c17" fill="#804998" d="M 22.891 40.543 l -7.647 2.92 V 31.13 l 7.647 2.709 Z"/>
<path class="msportalfx-svg-c20" fill="#68217a" d="M 8.289 33.159 v 8.1 l 5.728 2.179 V 31.13 l -5.728 2.029 Z m 0.628 7.513 l -0.312 -0.097 v -6.707 l 0.312 -0.088 l 0.328 -0.092 l 0.349 -0.098 v 7.292 l -0.349 -0.108 l -0.328 -0.102 Z m 1.436 0.444 l -0.392 -0.121 v -7.509 l 0.392 -0.111 l 0.415 -0.117 l 0.444 -0.125 v 8.249 l -0.444 -0.138 l -0.415 -0.128 Z m 1.84 0.57 l -0.508 -0.157 V 33 l 0.508 -0.143 l 0.542 -0.153 l 0.586 -0.165 v 9.496 l -0.586 -0.181 l -0.542 -0.168 Z"/>
<path class="msportalfx-svg-c17" fill="#804998" d="M 40.791 40.543 l -7.648 2.92 V 31.13 l 7.648 2.709 Z"/>
<path class="msportalfx-svg-c20" fill="#68217a" d="M 26.189 33.159 v 8.1 l 5.728 2.179 V 31.13 l -5.728 2.029 Z m 0.627 7.513 l -0.312 -0.097 v -6.707 l 0.312 -0.088 l 0.328 -0.092 l 0.349 -0.098 v 7.292 l -0.349 -0.108 l -0.328 -0.102 Z m 1.436 0.444 l -0.392 -0.121 v -7.509 l 0.392 -0.111 l 0.415 -0.117 l 0.444 -0.125 v 8.249 l -0.444 -0.138 l -0.415 -0.128 Z m 1.84 0.57 l -0.508 -0.157 V 33 l 0.508 -0.143 l 0.542 -0.153 l 0.586 -0.165 v 9.496 l -0.586 -0.181 l -0.542 -0.168 Z"/>
<path class="msportalfx-svg-c17" fill="#804998" d="M 32.417 28.21 l -7.648 2.92 V 18.798 l 7.648 2.708 Z"/>
<path class="msportalfx-svg-c20" fill="#68217a" d="M 17.815 20.826 v 8.1 l 5.728 2.179 V 18.798 l -5.728 2.028 Z m 0.627 7.513 l -0.312 -0.097 v -6.707 l 0.312 -0.088 l 0.328 -0.092 l 0.349 -0.098 v 7.292 l -0.349 -0.108 l -0.328 -0.102 Z m 1.436 0.445 l -0.392 -0.121 v -7.509 l 0.392 -0.11 l 0.415 -0.117 l 0.444 -0.125 v 8.249 l -0.444 -0.138 l -0.415 -0.129 Z m 1.84 0.569 l -0.508 -0.157 v -8.528 l 0.508 -0.143 l 0.542 -0.153 l 0.586 -0.165 v 9.496 l -0.586 -0.181 l -0.542 -0.169 Z"/>
<path class="msportalfx-svg-c17" fill="#804998" d="M 14.61 28.21 l -7.648 2.92 V 18.798 l 7.648 2.708 Z"/>
<path class="msportalfx-svg-c20" fill="#68217a" d="M 0.008 20.826 v 8.1 l 5.728 2.179 V 18.798 L 0.008 20.826 Z m 0.627 7.513 l -0.312 -0.097 v -6.707 l 0.312 -0.088 l 0.328 -0.092 l 0.349 -0.098 v 7.292 l -0.349 -0.108 l -0.328 -0.102 Z m 1.436 0.445 l -0.392 -0.121 v -7.509 l 0.392 -0.11 l 0.415 -0.117 l 0.445 -0.127 v 8.249 l -0.444 -0.138 l -0.416 -0.127 Z m 1.84 0.569 l -0.508 -0.157 v -8.528 l 0.508 -0.143 l 0.542 -0.153 l 0.586 -0.165 v 9.496 l -0.586 -0.181 l -0.542 -0.169 Z"/>
<path class="msportalfx-svg-c17" fill="#804998" d="M 50 28.21 l -7.648 2.92 V 18.798 L 50 21.506 Z"/>
<path class="msportalfx-svg-c20" fill="#68217a" d="M 35.398 20.826 v 8.1 l 5.728 2.179 V 18.798 l -5.728 2.028 Z m 0.627 7.513 l -0.312 -0.097 v -6.707 l 0.312 -0.088 l 0.328 -0.092 l 0.349 -0.098 v 7.292 l -0.349 -0.108 l -0.328 -0.102 Z m 1.436 0.445 l -0.392 -0.121 v -7.509 l 0.392 -0.11 l 0.415 -0.117 l 0.444 -0.125 v 8.249 l -0.444 -0.138 l -0.415 -0.129 Z m 1.84 0.569 l -0.508 -0.157 v -8.528 l 0.508 -0.143 l 0.542 -0.153 l 0.586 -0.165 v 9.496 l -0.586 -0.181 l -0.542 -0.169 Z"/>
</g>
</svg>